<svg width="38" height="38" viewBox="0 0 38 38" fill="none" xmlns="http://www.w3.org/2000/svg">
<path d="M5.98438 6.98438V30.4688C5.98438 32.0312 6.38021 33.2083 7.17188 34C7.97396 34.8021 9.14583 35.2031 10.6875 35.2031H26.0938C27.6354 35.2031 28.8021 34.8021 29.5938 34C30.3854 33.2083 30.7812 32.0312 30.7812 30.4688V6.98438C30.7812 5.42188 30.3854 4.23958 29.5938 3.4375C28.8021 2.63542 27.6354 2.23438 26.0938 2.23438H10.6875C9.13542 2.23438 7.96354 2.63542 7.17188 3.4375C6.38021 4.23958 5.98438 5.42188 5.98438 6.98438ZM9.0625 7.15625C9.0625 6.54167 9.21354 6.08333 9.51562 5.78125C9.82812 5.46875 10.2969 5.3125 10.9219 5.3125H25.8594C26.4844 5.3125 26.9479 5.46875 27.25 5.78125C27.5625 6.08333 27.7188 6.54167 27.7188 7.15625V30.2812C27.7188 30.8854 27.5625 31.3438 27.25 31.6562C26.9375 31.9792 26.474 32.1406 25.8594 32.1406H10.9219C10.2969 32.1406 9.82812 31.9792 9.51562 31.6562C9.21354 31.3438 9.0625 30.8854 9.0625 30.2812V7.15625ZM18.3906 29.7656C19.5573 29.7656 20.6146 29.4844 21.5625 28.9219C22.5208 28.3594 23.2812 27.6042 23.8438 26.6562C24.4167 25.6979 24.7031 24.6354 24.7031 23.4688C24.7031 22.2917 24.4167 21.2292 23.8438 20.2812C23.2812 19.3229 22.5208 18.5625 21.5625 18C20.6146 17.4375 19.5573 17.1562 18.3906 17.1562C17.224 17.1458 16.1615 17.4219 15.2031 17.9844C14.2448 18.5469 13.4844 19.3073 12.9219 20.2656C12.3594 21.224 12.0781 22.2917 12.0781 23.4688C12.0781 24.6354 12.3594 25.6979 12.9219 26.6562C13.4844 27.6042 14.2448 28.3594 15.2031 28.9219C16.1615 29.4844 17.224 29.7656 18.3906 29.7656ZM18.3906 25.9844C17.6927 25.9844 17.099 25.7396 16.6094 25.25C16.1198 24.75 15.875 24.1562 15.875 23.4688C15.875 22.7396 16.1146 22.1354 16.5938 21.6562C17.0729 21.1667 17.6719 20.9219 18.3906 20.9219C19.099 20.9219 19.6927 21.1667 20.1719 21.6562C20.6615 22.1354 20.9062 22.7396 20.9062 23.4688C20.9062 24.1562 20.6615 24.75 20.1719 25.25C19.6927 25.7396 19.099 25.9844 18.3906 25.9844ZM18.3906 14.8594C19.0469 14.8594 19.651 14.6979 20.2031 14.375C20.7552 14.0521 21.1927 13.6198 21.5156 13.0781C21.849 12.526 22.0104 11.9167 22 11.25C21.9896 10.2396 21.6354 9.39062 20.9375 8.70312C20.2396 8.01562 19.3906 7.66667 18.3906 7.65625C17.724 7.64583 17.1146 7.80208 16.5625 8.125C16.0208 8.44792 15.5885 8.88542 15.2656 9.4375C14.9427 9.97917 14.7812 10.5833 14.7812 11.25C14.7812 11.9167 14.9427 12.526 15.2656 13.0781C15.5885 13.6198 16.0208 14.0521 16.5625 14.375C17.1146 14.6979 17.724 14.8594 18.3906 14.8594ZM18.3906 12.9219C17.9219 12.9219 17.526 12.7552 17.2031 12.4219C16.8802 12.0885 16.7188 11.6979 16.7188 11.25C16.7188 10.7708 16.8802 10.375 17.2031 10.0625C17.526 9.73958 17.9219 9.57812 18.3906 9.57812C18.8385 9.57812 19.2292 9.74479 19.5625 10.0781C19.8958 10.401 20.0625 10.7917 20.0625 11.25C20.0625 11.6979 19.8958 12.0885 19.5625 12.4219C19.2396 12.7552 18.849 12.9219 18.3906 12.9219Z" fill="#F0F0F0" style="fill:#F0F0F0;fill:color(display-p3 0.9417 0.9417 0.9417);fill-opacity:1;"/>
</svg>
