<svg width="34" height="34" viewBox="0 0 34 34" fill="none" xmlns="http://www.w3.org/2000/svg">
<path fill-rule="evenodd" clip-rule="evenodd" d="M17 1.77083C17.5868 1.77083 18.0625 2.24653 18.0625 2.83333V5.93489L20.4987 3.49869C20.9136 3.08376 21.5864 3.08376 22.0013 3.49869C22.4162 3.91363 22.4162 4.58636 22.0013 5.0013L18.0625 8.9401V15.1597L23.4487 12.05L24.8904 6.66949C25.0423 6.10268 25.6249 5.76631 26.1917 5.91819C26.7585 6.07006 27.0949 6.65267 26.943 7.21948L26.0513 10.5474L28.7373 8.99661C29.2455 8.70321 29.8953 8.87732 30.1887 9.38551C30.4821 9.89369 30.308 10.5435 29.7998 10.8369L27.1138 12.3877L30.4417 13.2794C31.0085 13.4313 31.3449 14.0139 31.193 14.5807C31.0411 15.1475 30.4585 15.4839 29.8917 15.332L24.5112 13.8903L19.125 17L24.5115 20.1099L29.892 18.6682C30.4588 18.5163 31.0414 18.8527 31.1933 19.4195C31.3451 19.9863 31.0088 20.5689 30.442 20.7208L27.1141 21.6125L29.8001 23.1633C30.3083 23.4567 30.4824 24.1065 30.189 24.6147C29.8956 25.1229 29.2458 25.297 28.7376 25.0036L26.0516 23.4528L26.9433 26.7807C27.0951 27.3475 26.7588 27.9301 26.192 28.082C25.6252 28.2339 25.0425 27.8975 24.8907 27.3307L23.449 21.9502L18.0625 18.8403V25.0599L22.0013 28.9987C22.4162 29.4136 22.4162 30.0864 22.0013 30.5013C21.5864 30.9162 20.9136 30.9162 20.4987 30.5013L18.0625 28.0651V31.1667C18.0625 31.7535 17.5868 32.2292 17 32.2292C16.4132 32.2292 15.9375 31.7535 15.9375 31.1667V28.0651L13.5013 30.5013C13.0864 30.9162 12.4136 30.9162 11.9987 30.5013C11.5838 30.0864 11.5838 29.4136 11.9987 28.9987L15.9375 25.0599V18.8403L10.551 21.9502L9.10934 27.3307C8.95746 27.8975 8.37485 28.2339 7.80805 28.082C7.24124 27.9301 6.90487 27.3475 7.05675 26.7807L7.94846 23.4528L5.26242 25.0036C4.75424 25.297 4.10442 25.1229 3.81102 24.6147C3.51762 24.1065 3.69174 23.4567 4.19992 23.1633L6.88596 21.6125L3.55805 20.7208C2.99124 20.5689 2.65487 19.9863 2.80675 19.4195C2.95862 18.8527 3.54123 18.5163 4.10804 18.6682L9.48854 20.1099L14.875 17L9.48882 13.8903L4.10832 15.332C3.54151 15.4839 2.9589 15.1475 2.80702 14.5807C2.65515 14.0139 2.99152 13.4313 3.55833 13.2794L6.88624 12.3877L4.2002 10.8369C3.69202 10.5435 3.5179 9.89369 3.8113 9.38551C4.1047 8.87732 4.75452 8.70321 5.2627 8.99661L7.94873 10.5474L7.05702 7.21948C6.90515 6.65267 7.24152 6.07006 7.80833 5.91819C8.37513 5.76631 8.95774 6.10268 9.10962 6.66949L10.5513 12.05L15.9375 15.1597V8.9401L11.9987 5.0013C11.5838 4.58636 11.5838 3.91363 11.9987 3.49869C12.4136 3.08376 13.0864 3.08376 13.5013 3.49869L15.9375 5.93489V2.83333C15.9375 2.24653 16.4132 1.77083 17 1.77083Z" fill="#F0F0F0" style="fill:#F0F0F0;fill:color(display-p3 0.9417 0.9417 0.9417);fill-opacity:1;"/>
</svg>
