<svg width="38" height="38" viewBox="0 0 38 38" fill="none" xmlns="http://www.w3.org/2000/svg">
<g clip-path="url(#clip0_2_64)">
<path d="M5.00049 28.8682H31.2622C32.4487 28.8682 33.3496 28.5605 33.9648 27.9453C34.5889 27.3213 34.9009 26.416 34.9009 25.2295V10.0288C34.9009 8.85107 34.5889 7.95459 33.9648 7.33936C33.3496 6.71533 32.4487 6.40332 31.2622 6.40332H5.00049C3.81396 6.40332 2.90869 6.71533 2.28467 7.33936C1.66943 7.95459 1.36182 8.85107 1.36182 10.0288V25.2295C1.36182 26.416 1.66943 27.3213 2.28467 27.9453C2.90869 28.5605 3.81396 28.8682 5.00049 28.8682ZM5.15869 26.3369C4.73682 26.3369 4.42041 26.2358 4.20947 26.0337C3.99854 25.8228 3.89307 25.5063 3.89307 25.0845V10.187C3.89307 9.76514 3.99854 9.45312 4.20947 9.25098C4.42041 9.04004 4.73682 8.93457 5.15869 8.93457H31.104C31.5347 8.93457 31.8511 9.04004 32.0532 9.25098C32.2642 9.45312 32.3696 9.76514 32.3696 10.187V25.0845C32.3696 25.5063 32.2642 25.8228 32.0532 26.0337C31.8511 26.2358 31.5347 26.3369 31.104 26.3369H5.15869ZM11.3813 33.4824H24.8813C25.2065 33.4824 25.4878 33.3638 25.7251 33.1265C25.9624 32.8892 26.0811 32.6079 26.0811 32.2827C26.0811 31.9575 25.9624 31.6763 25.7251 31.439C25.4878 31.2017 25.2065 31.083 24.8813 31.083H11.3813C11.0562 31.083 10.7749 31.2017 10.5376 31.439C10.3003 31.6763 10.1816 31.9575 10.1816 32.2827C10.1816 32.6079 10.3003 32.8892 10.5376 33.1265C10.7749 33.3638 11.0562 33.4824 11.3813 33.4824Z" fill="#F0F0F0" style="fill:#F0F0F0;fill:color(display-p3 0.9417 0.9417 0.9417);fill-opacity:1;"/>
</g>
<defs>
<clipPath id="clip0_2_64">
<rect width="38" height="38" fill="white" style="fill:white;fill-opacity:1;"/>
</clipPath>
</defs>
</svg>
