<svg width="38" height="38" viewBox="0 0 38 38" fill="none" xmlns="http://www.w3.org/2000/svg">
<path d="M19 33.25C17.2583 33.25 15.7674 32.6299 14.5271 31.3896C13.2868 30.1493 12.6667 28.6583 12.6667 26.9167H7.91667C7.04583 26.9167 6.30008 26.6069 5.67942 25.9873C5.05981 25.3666 4.75 24.6208 4.75 23.75C4.75 20.0556 5.96389 16.8694 8.39167 14.1914C10.8194 11.5124 13.8278 9.975 17.4167 9.57917V4.75H20.5833V9.57917C24.1722 9.975 27.1806 11.5124 29.6083 14.1914C32.0361 16.8694 33.25 20.0556 33.25 23.75C33.25 24.6208 32.9402 25.3666 32.3206 25.9873C31.6999 26.6069 30.9542 26.9167 30.0833 26.9167H25.3333C25.3333 28.6583 24.7132 30.1493 23.4729 31.3896C22.2326 32.6299 20.7417 33.25 19 33.25ZM7.91667 23.75H30.0833C30.0833 20.6889 29.0014 18.0764 26.8375 15.9125C24.6736 13.7486 22.0611 12.6667 19 12.6667C15.9389 12.6667 13.3264 13.7486 11.1625 15.9125C8.99861 18.0764 7.91667 20.6889 7.91667 23.75ZM19 30.0833C19.8708 30.0833 20.6166 29.7735 21.2373 29.1539C21.8569 28.5333 22.1667 27.7875 22.1667 26.9167H15.8333C15.8333 27.7875 16.1437 28.5333 16.7643 29.1539C17.3839 29.7735 18.1292 30.0833 19 30.0833Z" fill="#323232" style="fill:#323232;fill:color(display-p3 0.1961 0.1961 0.1961);fill-opacity:1;"/>
<line x1="11.7226" y1="31.3868" x2="10.3868" y2="32.2774" stroke="#323232" style="stroke:#323232;stroke:color(display-p3 0.1961 0.1961 0.1961);stroke-opacity:1;" stroke-width="2" stroke-linecap="round"/>
<line x1="1" y1="-1" x2="2.60555" y2="-1" transform="matrix(0.83205 0.5547 0.5547 -0.83205 26 30)" stroke="#323232" style="stroke:#323232;stroke:color(display-p3 0.1961 0.1961 0.1961);stroke-opacity:1;" stroke-width="2" stroke-linecap="round"/>
<line x1="1" y1="-1" x2="2.60555" y2="-1" transform="matrix(-4.37114e-08 -1 -1 4.37114e-08 18 37.6056)" stroke="#323232" style="stroke:#323232;stroke:color(display-p3 0.1961 0.1961 0.1961);stroke-opacity:1;" stroke-width="2" stroke-linecap="round"/>
</svg>
